<?xml version="1.0" encoding="UTF-8"?>
<svg xmlns="http://www.w3.org/2000/svg" xmlns:xlink="http://www.w3.org/1999/xlink" viewBox="0 0 60 60" width="60px" height="60px">
<g id="surface86873342">
<path style=" stroke:none;fill-rule:nonzero;fill:rgb(100%,100%,100%);fill-opacity:1;" d="M 8.667969 0.667969 C 7.984375 0.667969 7.300781 0.925781 6.78125 1.449219 L 1.449219 6.78125 C 0.40625 7.824219 0.40625 9.511719 1.449219 10.550781 L 20.894531 30 L 1.449219 49.449219 C 0.40625 50.492188 0.40625 52.179688 1.449219 53.21875 L 6.78125 58.550781 C 7.824219 59.59375 9.511719 59.59375 10.550781 58.550781 L 30 39.105469 L 49.449219 58.550781 C 50.488281 59.59375 52.179688 59.59375 53.21875 58.550781 L 58.550781 53.21875 C 59.59375 52.175781 59.59375 50.488281 58.550781 49.449219 L 39.105469 30 L 58.550781 10.550781 C 59.59375 9.511719 59.59375 7.820312 58.550781 6.78125 L 53.21875 1.449219 C 52.175781 0.40625 50.488281 0.40625 49.449219 1.449219 L 30 20.894531 L 10.550781 1.449219 C 10.03125 0.925781 9.347656 0.667969 8.667969 0.667969 Z M 8.667969 0.667969 "/>
</g>
</svg>
