<?xml version="1.0" encoding="UTF-8"?>
<svg xmlns="http://www.w3.org/2000/svg" xmlns:xlink="http://www.w3.org/1999/xlink" viewBox="0 0 60 60" width="60px" height="60px">
<g id="surface71165752">
<path style=" stroke:none;fill-rule:nonzero;fill:rgb(100%,100%,100%);fill-opacity:1;" d="M 30 -0.398438 C 13.210938 -0.398438 -0.398438 13.210938 -0.398438 30 C -0.398438 44.246094 9.410156 56.164062 22.632812 59.460938 C 22.492188 59.050781 22.398438 58.574219 22.398438 57.984375 L 22.398438 52.789062 C 21.167969 52.789062 19.097656 52.789062 18.578125 52.789062 C 16.5 52.789062 14.652344 51.894531 13.753906 50.234375 C 12.757812 48.386719 12.585938 45.5625 10.117188 43.835938 C 9.386719 43.257812 9.945312 42.601562 10.789062 42.691406 C 12.34375 43.132812 13.636719 44.203125 14.851562 45.789062 C 16.0625 47.375 16.632812 47.734375 18.894531 47.734375 C 19.992188 47.734375 21.636719 47.671875 23.179688 47.429688 C 24.011719 45.320312 25.449219 43.375 27.203125 42.460938 C 17.078125 41.417969 12.25 36.382812 12.25 29.542969 C 12.25 26.601562 13.503906 23.753906 15.632812 21.355469 C 14.933594 18.972656 14.054688 14.117188 15.902344 12.265625 C 20.457031 12.265625 23.210938 15.21875 23.871094 16.019531 C 26.140625 15.242188 28.632812 14.800781 31.253906 14.800781 C 33.878906 14.800781 36.382812 15.242188 38.65625 16.023438 C 39.308594 15.230469 42.066406 12.265625 46.632812 12.265625 C 48.484375 14.117188 47.597656 18.996094 46.890625 21.371094 C 49.007812 23.765625 50.253906 26.605469 50.253906 29.542969 C 50.253906 36.375 45.429688 41.410156 35.324219 42.457031 C 38.105469 43.90625 40.132812 47.988281 40.132812 51.058594 L 40.132812 57.984375 C 40.132812 58.25 40.074219 58.4375 40.042969 58.664062 C 51.890625 54.511719 60.398438 43.265625 60.398438 30 C 60.398438 13.210938 46.789062 -0.398438 30 -0.398438 Z M 30 -0.398438 "/>
</g>
</svg>
