<svg width="900" height="150" viewBox="0 0 808 97" fill="none" xmlns="http://www.w3.org/2000/svg">
<path d="M20.625 4L39.625 45.5L58.625 4H79.0625L49.125 61.875V95H30.125V61.875L0.125 4H20.625ZM126.31 78.8125V27.375H144.31V95H127.372L126.31 78.8125ZM128.31 64.9375L133.622 64.8125C133.622 69.3125 133.102 73.5 132.06 77.375C131.018 81.2083 129.456 84.5417 127.372 87.375C125.289 90.1667 122.664 92.3542 119.497 93.9375C116.331 95.4792 112.602 96.25 108.31 96.25C105.018 96.25 101.977 95.7917 99.185 94.875C96.435 93.9167 94.06 92.4375 92.06 90.4375C90.1017 88.3958 88.56 85.7917 87.435 82.625C86.3517 79.4167 85.81 75.5625 85.81 71.0625V27.375H103.81V71.1875C103.81 73.1875 104.039 74.875 104.497 76.25C104.997 77.625 105.685 78.75 106.56 79.625C107.435 80.5 108.456 81.125 109.622 81.5C110.831 81.875 112.164 82.0625 113.622 82.0625C117.331 82.0625 120.247 81.3125 122.372 79.8125C124.539 78.3125 126.06 76.2708 126.935 73.6875C127.852 71.0625 128.31 68.1458 128.31 64.9375ZM178.62 42.125V95H160.62V27.375H177.557L178.62 42.125ZM198.995 26.9375L198.682 43.625C197.807 43.5 196.745 43.3958 195.495 43.3125C194.287 43.1875 193.182 43.125 192.182 43.125C189.641 43.125 187.432 43.4583 185.557 44.125C183.724 44.75 182.182 45.6875 180.932 46.9375C179.724 48.1875 178.807 49.7083 178.182 51.5C177.599 53.2917 177.266 55.3333 177.182 57.625L173.557 56.5C173.557 52.125 173.995 48.1042 174.87 44.4375C175.745 40.7292 177.016 37.5 178.682 34.75C180.391 32 182.474 29.875 184.932 28.375C187.391 26.875 190.203 26.125 193.37 26.125C194.37 26.125 195.391 26.2083 196.432 26.375C197.474 26.5 198.328 26.6875 198.995 26.9375ZM229.055 27.375V95H210.992V27.375H229.055ZM209.867 9.75C209.867 7.125 210.784 4.95833 212.617 3.25C214.451 1.54167 216.909 0.6875 219.992 0.6875C223.034 0.6875 225.472 1.54167 227.305 3.25C229.18 4.95833 230.117 7.125 230.117 9.75C230.117 12.375 229.18 14.5417 227.305 16.25C225.472 17.9583 223.034 18.8125 219.992 18.8125C216.909 18.8125 214.451 17.9583 212.617 16.25C210.784 14.5417 209.867 12.375 209.867 9.75ZM290.612 4H306.487L329.862 70.8125L353.237 4H369.112L336.237 95H323.487L290.612 4ZM282.05 4H297.862L300.737 69.125V95H282.05V4ZM361.862 4H377.737V95H358.987V69.125L361.862 4ZM392.735 61.875V60.5625C392.735 55.6042 393.443 51.0417 394.86 46.875C396.277 42.6667 398.339 39.0208 401.047 35.9375C403.756 32.8542 407.089 30.4583 411.047 28.75C415.006 27 419.547 26.125 424.672 26.125C429.797 26.125 434.36 27 438.36 28.75C442.36 30.4583 445.714 32.8542 448.422 35.9375C451.172 39.0208 453.256 42.6667 454.672 46.875C456.089 51.0417 456.797 55.6042 456.797 60.5625V61.875C456.797 66.7917 456.089 71.3542 454.672 75.5625C453.256 79.7292 451.172 83.375 448.422 86.5C445.714 89.5833 442.381 91.9792 438.422 93.6875C434.464 95.3958 429.922 96.25 424.797 96.25C419.672 96.25 415.11 95.3958 411.11 93.6875C407.152 91.9792 403.797 89.5833 401.047 86.5C398.339 83.375 396.277 79.7292 394.86 75.5625C393.443 71.3542 392.735 66.7917 392.735 61.875ZM410.735 60.5625V61.875C410.735 64.7083 410.985 67.3542 411.485 69.8125C411.985 72.2708 412.777 74.4375 413.86 76.3125C414.985 78.1458 416.443 79.5833 418.235 80.625C420.027 81.6667 422.214 82.1875 424.797 82.1875C427.297 82.1875 429.443 81.6667 431.235 80.625C433.027 79.5833 434.464 78.1458 435.547 76.3125C436.631 74.4375 437.422 72.2708 437.922 69.8125C438.464 67.3542 438.735 64.7083 438.735 61.875V60.5625C438.735 57.8125 438.464 55.2292 437.922 52.8125C437.422 50.3542 436.61 48.1875 435.485 46.3125C434.402 44.3958 432.964 42.8958 431.172 41.8125C429.381 40.7292 427.214 40.1875 424.672 40.1875C422.131 40.1875 419.964 40.7292 418.172 41.8125C416.422 42.8958 414.985 44.3958 413.86 46.3125C412.777 48.1875 411.985 50.3542 411.485 52.8125C410.985 55.2292 410.735 57.8125 410.735 60.5625ZM488.045 41.8125V95H470.045V27.375H486.92L488.045 41.8125ZM485.42 58.8125H480.545C480.545 53.8125 481.191 49.3125 482.483 45.3125C483.774 41.2708 485.587 37.8333 487.92 35C490.253 32.125 493.024 29.9375 496.233 28.4375C499.483 26.8958 503.108 26.125 507.108 26.125C510.274 26.125 513.17 26.5833 515.795 27.5C518.42 28.4167 520.67 29.875 522.545 31.875C524.462 33.875 525.92 36.5208 526.92 39.8125C527.962 43.1042 528.483 47.125 528.483 51.875V95H510.358V51.8125C510.358 48.8125 509.941 46.4792 509.108 44.8125C508.274 43.1458 507.045 41.9792 505.42 41.3125C503.837 40.6042 501.878 40.25 499.545 40.25C497.128 40.25 495.024 40.7292 493.233 41.6875C491.483 42.6458 490.024 43.9792 488.858 45.6875C487.733 47.3542 486.878 49.3125 486.295 51.5625C485.712 53.8125 485.42 56.2292 485.42 58.8125ZM577.855 27.375V40.125H538.48V27.375H577.855ZM548.23 10.6875H566.23V74.625C566.23 76.5833 566.48 78.0833 566.98 79.125C567.522 80.1667 568.313 80.8958 569.355 81.3125C570.397 81.6875 571.709 81.875 573.292 81.875C574.417 81.875 575.417 81.8333 576.292 81.75C577.209 81.625 577.98 81.5 578.605 81.375L578.667 94.625C577.126 95.125 575.459 95.5208 573.667 95.8125C571.876 96.1042 569.897 96.25 567.73 96.25C563.772 96.25 560.313 95.6042 557.355 94.3125C554.438 92.9792 552.188 90.8542 550.605 87.9375C549.022 85.0208 548.23 81.1875 548.23 76.4375V10.6875ZM621.79 96.25C616.54 96.25 611.832 95.4167 607.665 93.75C603.498 92.0417 599.957 89.6875 597.04 86.6875C594.165 83.6875 591.957 80.2083 590.415 76.25C588.873 72.25 588.102 68 588.102 63.5V61C588.102 55.875 588.832 51.1875 590.29 46.9375C591.748 42.6875 593.832 39 596.54 35.875C599.29 32.75 602.623 30.3542 606.54 28.6875C610.457 26.9792 614.873 26.125 619.79 26.125C624.582 26.125 628.832 26.9167 632.54 28.5C636.248 30.0833 639.352 32.3333 641.852 35.25C644.394 38.1667 646.311 41.6667 647.602 45.75C648.894 49.7917 649.54 54.2917 649.54 59.25V66.75H595.79V54.75H631.852V53.375C631.852 50.875 631.394 48.6458 630.477 46.6875C629.602 44.6875 628.269 43.1042 626.477 41.9375C624.686 40.7708 622.394 40.1875 619.602 40.1875C617.227 40.1875 615.186 40.7083 613.477 41.75C611.769 42.7917 610.373 44.25 609.29 46.125C608.248 48 607.457 50.2083 606.915 52.75C606.415 55.25 606.165 58 606.165 61V63.5C606.165 66.2083 606.54 68.7083 607.29 71C608.082 73.2917 609.186 75.2708 610.602 76.9375C612.061 78.6042 613.811 79.8958 615.852 80.8125C617.936 81.7292 620.29 82.1875 622.915 82.1875C626.165 82.1875 629.186 81.5625 631.977 80.3125C634.811 79.0208 637.248 77.0833 639.29 74.5L648.04 84C646.623 86.0417 644.686 88 642.227 89.875C639.811 91.75 636.894 93.2917 633.477 94.5C630.061 95.6667 626.165 96.25 621.79 96.25ZM681.35 27.375V95H663.287V27.375H681.35ZM662.162 9.75C662.162 7.125 663.079 4.95833 664.912 3.25C666.746 1.54167 669.204 0.6875 672.287 0.6875C675.329 0.6875 677.767 1.54167 679.6 3.25C681.475 4.95833 682.412 7.125 682.412 9.75C682.412 12.375 681.475 14.5417 679.6 16.25C677.767 17.9583 675.329 18.8125 672.287 18.8125C669.204 18.8125 666.746 17.9583 664.912 16.25C663.079 14.5417 662.162 12.375 662.162 9.75ZM716.785 42.125V95H698.785V27.375H715.722L716.785 42.125ZM737.16 26.9375L736.847 43.625C735.972 43.5 734.91 43.3958 733.66 43.3125C732.452 43.1875 731.347 43.125 730.347 43.125C727.806 43.125 725.597 43.4583 723.722 44.125C721.889 44.75 720.347 45.6875 719.097 46.9375C717.889 48.1875 716.972 49.7083 716.347 51.5C715.764 53.2917 715.431 55.3333 715.347 57.625L711.722 56.5C711.722 52.125 712.16 48.1042 713.035 44.4375C713.91 40.7292 715.181 37.5 716.847 34.75C718.556 32 720.639 29.875 723.097 28.375C725.556 26.875 728.368 26.125 731.535 26.125C732.535 26.125 733.556 26.2083 734.597 26.375C735.639 26.5 736.493 26.6875 737.16 26.9375ZM743.47 61.875V60.5625C743.47 55.6042 744.178 51.0417 745.595 46.875C747.012 42.6667 749.074 39.0208 751.782 35.9375C754.491 32.8542 757.824 30.4583 761.782 28.75C765.741 27 770.282 26.125 775.407 26.125C780.532 26.125 785.095 27 789.095 28.75C793.095 30.4583 796.449 32.8542 799.157 35.9375C801.907 39.0208 803.991 42.6667 805.407 46.875C806.824 51.0417 807.532 55.6042 807.532 60.5625V61.875C807.532 66.7917 806.824 71.3542 805.407 75.5625C803.991 79.7292 801.907 83.375 799.157 86.5C796.449 89.5833 793.116 91.9792 789.157 93.6875C785.199 95.3958 780.657 96.25 775.532 96.25C770.407 96.25 765.845 95.3958 761.845 93.6875C757.887 91.9792 754.532 89.5833 751.782 86.5C749.074 83.375 747.012 79.7292 745.595 75.5625C744.178 71.3542 743.47 66.7917 743.47 61.875ZM761.47 60.5625V61.875C761.47 64.7083 761.72 67.3542 762.22 69.8125C762.72 72.2708 763.512 74.4375 764.595 76.3125C765.72 78.1458 767.178 79.5833 768.97 80.625C770.762 81.6667 772.949 82.1875 775.532 82.1875C778.032 82.1875 780.178 81.6667 781.97 80.625C783.762 79.5833 785.199 78.1458 786.282 76.3125C787.366 74.4375 788.157 72.2708 788.657 69.8125C789.199 67.3542 789.47 64.7083 789.47 61.875V60.5625C789.47 57.8125 789.199 55.2292 788.657 52.8125C788.157 50.3542 787.345 48.1875 786.22 46.3125C785.137 44.3958 783.699 42.8958 781.907 41.8125C780.116 40.7292 777.949 40.1875 775.407 40.1875C772.866 40.1875 770.699 40.7292 768.907 41.8125C767.157 42.8958 765.72 44.3958 764.595 46.3125C763.512 48.1875 762.72 50.3542 762.22 52.8125C761.72 55.2292 761.47 57.8125 761.47 60.5625Z" fill="white"/>
</svg>
